<svg width="40" height="66" viewBox="0 0 40 66" fill="none" xmlns="http://www.w3.org/2000/svg">
    <path d="M19.9384 52.8936C18.7453 52.8938 17.5855 52.4102 16.6389 51.5177C15.6922 50.6252 15.0116 49.3738 14.7026 47.9575" stroke="#F8F8F8" stroke-width="5" stroke-linecap="round"/>
    <path d="M15.6673 8.52511C17.3774 4.95126 18.2337 3.16266 19.4559 2.89621C19.7749 2.82529 20.1017 2.82529 20.4207 2.89621C21.6429 3.16266 22.4993 4.95126 24.2093 8.52511L28.7296 17.971C31.8889 24.5726 34.3539 31.6402 36.0656 39.0044C38.8488 50.9717 31.5399 62.8856 21.4099 62.8856H18.4668C8.33944 62.8856 1.02781 50.9717 3.811 39.0044C5.52276 31.6402 7.98778 24.5726 11.147 17.971L15.6673 8.52511Z" stroke="#F8F8F8" stroke-width="5"/>
    </svg>
    