<svg width="42" height="61" viewBox="0 0 42 61" fill="none" xmlns="http://www.w3.org/2000/svg">
    <path d="M9 11.0911C9 8.14958 10.2643 5.32851 12.5147 3.24852C14.7652 1.16853 17.8174 0 21 0C24.1826 0 27.2348 1.16853 29.4853 3.24852C31.7357 5.32851 33 8.14958 33 11.0911V25.6621C36.669 28.0233 39.4268 31.4052 40.8722 35.3155C42.3176 39.2257 42.3751 43.4603 41.0363 47.4028C39.6975 51.3454 37.0323 54.7901 33.4286 57.2357C29.8249 59.6812 25.4708 61 21 61C16.5292 61 12.1751 59.6812 8.57141 57.2357C4.9677 54.7901 2.30249 51.3454 0.96369 47.4028C-0.375113 43.4603 -0.317632 39.2257 1.12777 35.3155C2.57317 31.4052 5.33105 28.0233 9 25.6621V11.0911ZM12.432 30.2095C9.81052 31.8956 7.83974 34.311 6.80656 37.1042C5.77339 39.8973 5.73175 42.9224 6.68772 45.7389C7.64369 48.5554 9.54736 51.0164 12.1216 52.7636C14.6958 54.5108 17.8062 55.453 21 55.453C24.1938 55.453 27.3042 54.5108 29.8784 52.7636C32.4526 51.0164 34.3563 48.5554 35.3123 45.7389C36.2682 42.9224 36.2266 39.8973 35.1934 37.1042C34.1603 34.311 32.1895 31.8956 29.568 30.2095L27 28.5541V11.0911C27 9.62035 26.3679 8.20982 25.2426 7.16982C24.1174 6.12983 22.5913 5.54556 21 5.54556C19.4087 5.54556 17.8826 6.12983 16.7574 7.16982C15.6321 8.20982 15 9.62035 15 11.0911V28.5541L12.432 30.2095ZM9 41.5917H33C33 44.5333 31.7357 47.3544 29.4853 49.4343C27.2348 51.5143 24.1826 52.6829 21 52.6829C17.8174 52.6829 14.7652 51.5143 12.5147 49.4343C10.2643 47.3544 9 44.5333 9 41.5917Z" fill="#F8F8F8"/>
    </svg>
    